<mxfile host="app.diagrams.net" modified="2023-07-11T10:13:32.089Z" agent="Mozilla/5.0 (Windows NT 10.0; Win64; x64) AppleWebKit/537.36 (KHTML, like Gecko) Chrome/114.0.0.0 Safari/537.36" version="21.6.1" etag="I7XDNg8fXch6uOQ7kK-8" type="github">
  <diagram name="第 1 页" id="IYcNJRvw0srckEvzNK8h">
    <mxGraphModel>
      <root>
        <mxCell id="0" />
        <mxCell id="1" parent="0" />
      </root>
    </mxGraphModel>
  </diagram>
</mxfile>
